<?xml version="1.0" encoding="UTF-8"?><svg id="a" xmlns="http://www.w3.org/2000/svg" viewBox="0 0 400.28 775.85"><defs><style>.c{fill:#63ac64;isolation:isolate;opacity:1;}.c,.d,.e,.f,.g,.h,.i,.j,.k,.l,.m,.n,.o,.p{fill-rule:evenodd;}.d{fill:#48a966;}.e{fill:#114d70;}.f{fill:#86c76d;}.g{fill:#133849;}.h{fill:#60acd1;}.i{fill:#153e53;}.j{fill:#0d2f40;}.k{fill:#1e8754;}.l{fill:#0e5946;}.m{fill:#93ce78;}.n{fill:#1c8650;}.o{fill:#6ecacd;}.p{fill:#178ba1;}</style></defs><path class="i" d="M42.98,79.82c2.49-.19,5.32,2.55,7.25,3.92,6.31,4.49,12.29,10.81,15.64,17.86.75,1.52,1.91,2.84,2.59,4.35-1.91-2.51-6.73-.41-9.31.16-5.62,1.24-10.24,3.77-14.88,7.05-1.45,1.02-3.91,2.34-4.77,3.94-.32.6.45,1.29.5,1.88.07.79-.55,1.37-.63,2.09-.88-.17-1.75-.33-2.64-.45-.78.72-1.22,2-1.72,2.94-1.12,2.11-2.49,4.29-3.24,6.56-.22.65-.45,3.44-1.51,3.19-.78-.92-.98-2.36-1.46-3.45-1.31-3.04-2.4-6.02-3-9.29-2.91-15.91,2.95-32.22,17.18-40.77Z"/><path class="j" d="M68.45,105.95c.14.32.2.58.24.92.03,3.4-.15,6.79-.09,10.19.04,2.23.39,4.78.05,6.98-3.83-.99-8.44-.24-12.39-.44-5.67-.29-11.31-1.56-16.9-2.52.07-.72.7-1.3.63-2.09-.05-.59-.82-1.29-.5-1.88.86-1.6,3.32-2.92,4.77-3.94,4.64-3.29,9.27-5.81,14.88-7.05,2.58-.57,7.4-2.67,9.31-.16Z"/><path class="f" d="M93.21,42.91c1.74.56,3.9.39,5.72.48,3.73.18,7.6.31,11.3.81,11.24,1.53,22,5.39,31.34,11.85,1.97,1.36,3.84,2.84,5.77,4.23,1.24.89,2.98,1.9,3.75,3.25,1.9,3.44,5.03,6.19,7.3,9.4,5.29,7.49,9.88,15.73,12.55,24.55,2.94,9.73,4.41,19.79,5.48,29.86,1.09,10.29,1.62,20.47,5.82,30.12,5.02,11.55,13.72,19.96,23.31,27.79-.09.28-2.53-.54-2.84-.58-1.79-.22-3.68.02-5.48.07-5.9.15-11.99.02-17.81,1.16-10.76,2.11-22.13,7.21-30.9,13.75-3.88,2.89-7.02,6.53-10.69,9.62-.75.6-1.67.78-2.45,1.33-1.57,1.12-3.23,2.59-4.6,3.95-8.48,8.4-14.55,18.9-22.72,27.57-10.57,11.21-23.98,20.85-37.69,27.86-.65,0-1.15-.72-1.61-1.14-1.19-1.08-2.45-2.08-3.63-3.17-5.1-4.68-10.32-9.21-14.12-15.07-1.46-2.25-2.05-5.2-3.56-7.32-.35-.49-.96-.45-1.5-.38-.14-12.7,1.02-24.97,4.53-37.25,1.85-6.49,4.6-12.87,7.21-19.09,6.33-15.07,12.84-29.66,13.12-46.24.09-5.4-.1-11.22-2.17-16.3.34-2.2-.01-4.75-.05-6.98-.06-3.4.12-6.79.09-10.19.65-1.2,3.32-5.76.21-5.54-1.1.08-1.96,1.14-3.04.27-3.34-7.05-9.33-13.37-15.64-17.86-1.93-1.37-4.76-4.11-7.25-3.92,2.12-5.34,4.44-10.35,7.98-14.92,9.75-12.6,26.44-20.76,42.25-21.98ZM82.98,91.31c1.27,6.05,8.65,8.71,14.01,6.97,3.95-1.28,6.65-4.85,7.15-8.93,2.84-.72,2.01-4.67,5.06-5.37.89-2.89,2.85-5.71,3.34-8.68-.95-1.71-5.34-2.09-7.12-2.21-6.5-.45-16.46.93-20.2,7.09-.17.6-.07,1.25-.37,1.79-.76,1.04-1.7,2.13-2.16,3.33-1.41,0-3.14,2.33-3.88,3.34-.43.58-.94,1.01-.29,1.64,1.35,1.32,2.93.39,4.46,1.03Z"/><path class="h" d="M45.96,242.91c.54-.07,1.15-.11,1.5.38,1.51,2.12,2.1,5.06,3.56,7.32,3.8,5.86,9.02,10.39,14.12,15.07,1.18,1.09,2.44,2.09,3.63,3.17.46.42.95,1.13,1.61,1.14,13.7-7.02,27.12-16.65,37.69-27.86,8.17-8.67,14.24-19.17,22.72-27.57,1.37-1.36,3.04-2.82,4.6-3.95.77-.55,1.7-.73,2.45-1.33-1.79,2.15-3.88,4.03-5.58,6.27-3.16,4.17-5.69,8.96-7.74,13.76-9.36,21.99-7.45,47.07,2.1,68.68,5.7,12.9,14.05,24.48,23.03,35.24-1.01.22-1.02,1.13-1.12,2.07-.19,1.8-.56,3.56-.98,5.31-1.14,4.78-2.86,9.45-4.49,14.07-.91,2.58-1.59,5.32-2.73,7.81-.97.52-3.13.13-4.26.14-4.06.03-8.12,0-12.14-.56-.84-.12-5.12-1.65-4.86-.12-7.29-4.58-13.89-10.31-20.32-16-20.02-17.72-35.4-39.56-44.86-64.57-4.59-12.13-7.7-25.41-7.91-38.45Z"/><path class="c" d="M65.86,101.6c1.08.87,1.94-.19,3.04-.27,3.11-.23.44,4.34-.21,5.54-.04-.34-.1-.61-.24-.92-.68-1.51-1.84-2.83-2.59-4.35Z"/><path class="d" d="M82.69,85.31c-.52,1.95-.03,4.05.29,6.01-1.54-.64-3.11.29-4.46-1.03-.65-.63-.14-1.07.29-1.64.74-1.01,2.47-3.34,3.88-3.34Z"/><path class="g" d="M82.69,85.31c.47-1.21,1.41-2.29,2.16-3.33,4.68-4.67,11.28-5.44,16.93.27.54.45.97,1.41,1.36,2,.52,1.64,1.05,3.39,1,5.11-.5,4.08-3.2,7.65-7.15,8.93-5.36,1.74-12.75-.92-14.01-6.97-.32-1.96-.81-4.05-.29-6.01Z"/><path class="k" d="M93.21,42.91c1.47-.08,2.88-.61,4.34-.83,3.93-.6,7.86-1.09,11.78-1.75,12.99-2.18,25.85-4.44,38.62-7.74,12.42-3.21,24.67-7.4,37.37-9.31.19,2.12.5,4.53-.19,6.59-1.76,5.33-7.41,8.67-12.45,10.24-10.78,3.34-22.05,2.65-32.94,5.12,1.31.38,2.65.25,3.99.44,3.55.51,7.09.86,10.65,1.27,9.65,1.09,19.36,2.28,28.93,3.92,4,.68,9.21.59,12.91,2.35,2,.95,1.77,3.35.94,5-1.54,3.07-4.85,5.04-8.15,5.62-4.42.78-8.96-.56-13.18-1.72-4.39-1.21-8.77-2.5-13.18-3.62-2.13-.54-4.24-1.1-6.34-1.71-.98-.29-1.91-.85-2.97-.55,1.31,1.25,3.25,1.53,4.82,2.38,2.35,1.28,4.69,2.62,7.02,3.94,8.47,4.78,16.75,9.66,24.32,15.79,2.21,1.79,3.59,5.67.72,7.48-2.69,1.7-6.76,1.79-9.65.63-3.9-1.56-7.21-5.02-10.22-7.86-3.73-3.52-7.74-7.05-11.87-10.09-1.65-1.21-3.28-2.46-4.97-3.62-.72-.5-1.5-1.26-2.4-1.35-.77-1.35-2.51-2.36-3.75-3.25-1.94-1.39-3.81-2.87-5.77-4.23-9.34-6.46-20.11-10.32-31.34-11.85-3.7-.5-7.56-.63-11.3-.81-1.82-.09-3.98.08-5.72-.48Z"/><path class="e" d="M149.64,333.21c3.03,2.46,5.49,5.85,8.23,8.64,5.69,5.81,11.56,11.51,17.77,16.76,15.93,13.43,32.94,25.53,50.7,36.41,9.28,5.68,18.51,11.59,28.25,16.47-.22,1.08.26,2.67.5,3.76.55,2.57,1.19,5.12,1.63,7.71.75,4.44.8,8.94,1.11,13.42.22,3.18.75,6.35.85,9.54.78,23.71-1.93,47.34-6.18,70.62-11.55,32.95-27.87,63.6-48.89,91.49-5.02,6.66-10.61,12.8-16.21,18.97-1.35,1.48-2.67,3.09-4.15,4.44-.31.28-1.04,1.15-1.4.82-1.32-14.08-4.02-28.03-5.47-42.1-.38-3.71-.73-7.42-1.1-11.14-.18-1.76-.75-3.93-.39-5.67,2.46-3.12,5.47-5.8,8.03-8.84,6.48-7.7,12.55-15.6,18.49-23.72,7.25-9.92,13.36-20.94,18.66-32,14.87-31.03,24.65-66.98,17.65-101.44-.74-.66-2.35-.62-3.3-.78-2.6-.43-5.23-.76-7.82-1.25-9.57-1.82-19.15-3.86-28.5-6.61-28.01-8.23-55.35-19.38-79.02-36.76-.25-1.53,4.02,0,4.86.12,4.03.56,8.08.59,12.14.56,1.14,0,3.29.38,4.26-.14,1.14-2.49,1.82-5.23,2.73-7.81,1.63-4.62,3.35-9.3,4.49-14.07.42-1.76.79-3.52.98-5.31.1-.94.11-1.85,1.12-2.07Z"/><path class="n" d="M343.27,352.31c-1.28-2.11-4.68-3.82-6.66-5.29-5.09-3.79-10.07-7.73-15.09-11.62-8.13-6.31-16.28-12.95-23.78-20-4.84-4.55-9.39-9.71-14.6-13.83-.71,4.62-3.08,9.49-4.86,13.79-2.68,6.48-5.58,12.68-9.1,18.75-1.52,2.61-2.95,5.55-5.05,7.74-8.47,3.07-17.25,5.68-26.18,6.96-2.88.41-5.81.8-8.72.9-1.28.04-3.36-.14-4.45.58-1.1-.7-2.59-.64-3.85-.87-3.16-.57-6.36-.93-9.52-1.43-8.32-1.33-17.17-3.54-24.99-6.68-6.54-2.63-12.73-5.56-18.79-9.16-1.43-.85-4.82-4.04-6.46-2.65-1.03-.89-1.81-2.13-2.75-3.13-3.64-3.89-6.88-8.09-10.02-12.4-17.25-23.68-26.59-56.76-11.7-83.97,1.85-3.39,3.87-6.82,6.35-9.8,4.43-5.32,9.41-9.91,15.15-13.77,6.31-4.24,13.65-7.67,21.13-9.19,6.04-1.23,12.18-1.83,18.34-1.78,42.36.3,77.98,31.79,101.62,64.32,4.48,6.16,8.69,12.54,12.48,19.15,4.63,8.08,8.87,16.25,12.94,24.61,5.52,11.36,10.72,23.51,14.44,35.6,1.31,4.24,3.68,8.75,4.14,13.17Z"/><path class="l" d="M161.16,329.5c1.63-1.38,5.03,1.81,6.46,2.65,6.07,3.6,12.25,6.53,18.79,9.16,7.82,3.14,16.67,5.35,24.99,6.68,3.17.51,6.37.86,9.52,1.43,1.26.23,2.75.17,3.85.87,8.32,9.79,18.35,17.85,28,26.25,8.13,7.09,16.78,13.47,25.45,19.88,10.27,7.59,20.46,15.05,31.24,21.91,9.44,6.02,18.74,12.38,28.79,17.36,2.46,1.22,4.74,2.86,7.27,3.93,2.64,1.13,5.49,1.72,8.28,2.39,1.67.98,3.18,2.36,4.74,3.5.32.23,1.61,1.14,1.08,1.44-1.27-.2-2.45-.9-3.65-1.34-3.44-1.26-6.87-2.67-10.34-3.85-14.03-4.79-27.58-11.42-41.1-17.48-35.02-15.73-68.13-34.7-99.58-56.67-9.94-6.95-19.24-14.72-28.25-22.83-5.29-4.76-11.27-9.56-15.54-15.29Z"/><path class="p" d="M252.5,516.53c4.25-23.28,6.96-46.91,6.18-70.62-.1-3.19-.63-6.35-.85-9.54-.31-4.48-.36-8.98-1.11-13.42-.44-2.6-1.08-5.14-1.63-7.71-.23-1.08-.72-2.68-.5-3.76,8.82,4.12,17.37,9.01,26.14,13.29,2.87,1.4,5.78,3.15,8.8,4.19-.5.51-.14.89.02,1.5.43,1.65.9,3.28,1.37,4.92,1.79,6.32,2.95,12.81,4.04,19.28,4.19,24.86,5.93,50.75,3.49,75.87-1.24,9.9-3.76,19.58-6.16,29.24-6.13,24.73-15.46,48.5-26.74,71.32-3.78,7.65-8.08,14.97-12.39,22.33-2.76,4.7-5.62,10.04-9.55,13.88-3.9,3.81-9.66,6.49-14.35,9.23-11.09,6.48-22.72,12.23-34.73,16.81-2.73,1.04-5.61,1.82-8.31,2.93-.66.27-2.32,1.16-2.92.62,9.28-16.08,18.61-32.2,26.55-49.01,12.7-26.91,23.22-54.73,31.55-83.29,3.16-10.84,5.66-21.85,8.31-32.82.88-3.64,1.83-7.32,2.41-11.03.23-1.45.75-2.76.38-4.21Z"/><path class="o" d="M298.45,530.53c2.44-25.12.7-51.01-3.49-75.87-1.09-6.47-2.25-12.96-4.04-19.28-.46-1.64-.94-3.27-1.37-4.92-.16-.62-.52-.99-.02-1.5,4.8,1.85,9.48,4.16,14.22,6.19,2.54,1.09,5.77,1.97,8.01,3.58.9,1.1,1.07,2.92,1.46,4.27.97,3.36,1.85,6.74,2.77,10.11,3.78,13.83,5.72,28.33,7.59,42.52,8.22,62.27-2.23,127.53-31.43,183.33-9.67,18.48-20.41,37.14-34.41,52.72-2.25,2.5-4.84,4.6-7.26,6.92-5.85,5.61-12.55,10.65-19.48,14.84-2.25,1.36-4.47,2.81-6.68,4.24-.47.3-3.39,2.24-3.31,1.8,2-3.41,4.36-6.63,6.41-10.03,8.45-14.05,16.79-28.21,24.35-42.76,15.67-30.15,27.94-62.38,36.17-95.34,4.44-17.77,6.85-35.82,9.38-53.91.84-6,.99-12.14,1.34-18.19.14-2.39.54-4.76.7-7.13.03-.4-.06-2.9-.89-1.58Z"/><path class="d" d="M224.77,350.29c1.08-.72,3.17-.54,4.45-.58,2.91-.1,5.84-.49,8.72-.9,8.93-1.28,17.72-3.88,26.18-6.96.94.28,1.49,1.33,2.03,2.13,1.2,1.75,2.38,3.51,3.6,5.24,4.88,6.94,9.86,13.72,15.04,20.45,13.73,17.85,29.56,34.67,45.65,50.4,5.2,5.08,10.63,9.88,16.04,14.74,2.44,2.19,5.68,4.3,7.31,7.22-2.78-.67-5.63-1.26-8.28-2.39-2.52-1.07-4.81-2.71-7.27-3.93-10.05-4.98-19.35-11.34-28.79-17.36-10.78-6.87-20.96-14.33-31.24-21.91-8.67-6.41-17.32-12.79-25.45-19.88-9.65-8.41-19.68-16.47-28-26.25Z"/><path class="m" d="M343.27,352.31c3.22,11.77,7.23,23.26,10.09,35.14,4.83,20.06,7.7,40.37,9.34,60.91-.54.2-2.65-1-3.08-1.4.53-.3-.76-1.21-1.08-1.44-1.56-1.15-3.07-2.52-4.74-3.5-1.62-2.92-4.87-5.02-7.31-7.22-5.4-4.86-10.83-9.66-16.04-14.74-16.1-15.73-31.92-32.54-45.65-50.4-5.17-6.72-10.15-13.51-15.04-20.45-1.22-1.73-2.41-3.49-3.6-5.24-.54-.8-1.09-1.84-2.03-2.13,2.1-2.19,3.54-5.13,5.05-7.74,3.52-6.07,6.43-12.28,9.1-18.75,1.78-4.3,4.16-9.18,4.86-13.79,5.21,4.12,9.76,9.28,14.6,13.83,7.5,7.05,15.65,13.69,23.78,20,5.01,3.89,10,7.83,15.09,11.62,1.98,1.47,5.38,3.18,6.66,5.29Z"/></svg>